<svg width="65" height="64" viewBox="0 0 65 64" fill="none" xmlns="http://www.w3.org/2000/svg">
<g id="icon/hourglass_empty">
<mask id="mask0_19021_111645" style="mask-type:alpha" maskUnits="userSpaceOnUse" x="0" y="0" width="65" height="64">
<rect id="Bounding box" x="0.5" width="64" height="64" fill="#D9D9D9"/>
</mask>
<g mask="url(#mask0_19021_111645)">
<path id="hourglass_empty" d="M21.8327 53.332H43.166V45.332C43.166 42.3987 42.1216 39.8876 40.0327 37.7987C37.9438 35.7098 35.4327 34.6654 32.4993 34.6654C29.566 34.6654 27.0549 35.7098 24.966 37.7987C22.8771 39.8876 21.8327 42.3987 21.8327 45.332V53.332ZM32.4993 29.332C35.4327 29.332 37.9438 28.2876 40.0327 26.1987C42.1216 24.1098 43.166 21.5987 43.166 18.6654V10.6654H21.8327V18.6654C21.8327 21.5987 22.8771 24.1098 24.966 26.1987C27.0549 28.2876 29.566 29.332 32.4993 29.332ZM51.166 58.6654H13.8327C13.0771 58.6654 12.4433 58.4094 11.9313 57.8974C11.4211 57.3871 11.166 56.7543 11.166 55.9987C11.166 55.2431 11.4211 54.6103 11.9313 54.1C12.4433 53.588 13.0771 53.332 13.8327 53.332H16.4993V45.332C16.4993 42.6209 17.1331 40.076 18.4007 37.6974C19.6665 35.3205 21.4327 33.4209 23.6993 31.9987C21.4327 30.5765 19.6665 28.676 18.4007 26.2974C17.1331 23.9205 16.4993 21.3765 16.4993 18.6654V10.6654H13.8327C13.0771 10.6654 12.4433 10.4094 11.9313 9.89736C11.4211 9.38714 11.166 8.75425 11.166 7.9987C11.166 7.24314 11.4211 6.60936 11.9313 6.09736C12.4433 5.58714 13.0771 5.33203 13.8327 5.33203H51.166C51.9216 5.33203 52.5545 5.58714 53.0647 6.09736C53.5767 6.60936 53.8327 7.24314 53.8327 7.9987C53.8327 8.75425 53.5767 9.38714 53.0647 9.89736C52.5545 10.4094 51.9216 10.6654 51.166 10.6654H48.4993V18.6654C48.4993 21.3765 47.8665 23.9205 46.6007 26.2974C45.3331 28.676 43.566 30.5765 41.2993 31.9987C43.566 33.4209 45.3331 35.3205 46.6007 37.6974C47.8665 40.076 48.4993 42.6209 48.4993 45.332V53.332H51.166C51.9216 53.332 52.5545 53.588 53.0647 54.1C53.5767 54.6103 53.8327 55.2431 53.8327 55.9987C53.8327 56.7543 53.5767 57.3871 53.0647 57.8974C52.5545 58.4094 51.9216 58.6654 51.166 58.6654Z" fill="#CCCCCC"/>
</g>
</g>
</svg>
