<svg width="73" height="28" viewBox="0 0 73 28" fill="none" xmlns="http://www.w3.org/2000/svg">
<path id="Union" fill-rule="evenodd" clip-rule="evenodd" d="M15.4617 0H7.49758C7.49758 0 0.567114 27.6875 0.492188 27.9954C0.492188 27.9884 1.89826 27.9919 3.32563 27.9956H3.32589C4.80048 27.9993 6.29773 28.0031 6.29089 27.9954C6.64811 26.3615 7.00532 24.7383 7.36373 23.1102H13.9419C14.2696 24.7406 14.5965 26.3694 14.9226 27.9967H22.4201C20.1002 18.6621 17.7807 9.32984 15.4617 0ZM8.40103 18.4785C8.60852 17.5001 8.82627 16.5243 9.04389 15.5491L9.0439 15.5491C9.6876 12.6646 10.3302 9.78501 10.7029 6.85535C10.7225 6.85535 10.7423 6.85565 10.7623 6.85595C10.7825 6.85625 10.8029 6.85656 10.8232 6.85656C11.1781 9.81603 11.779 12.7328 12.3812 15.656L12.3812 15.6561C12.5748 16.5957 12.7685 17.536 12.9542 18.4786L8.40103 18.4785ZM29.8874 0H24.6484V5.0625H19.6953V9.82094H24.6484V27.9764H29.8874V9.82094H50.9301L53.385 7.44111L50.9301 5.0625H29.8874V0ZM47.8628 25.3161C49.2807 23.8132 50.0339 21.8355 49.9618 19.8047C49.9618 19.7417 49.9627 19.6788 49.9636 19.6159L49.9636 19.615C49.9654 19.4794 49.9673 19.3437 49.9606 19.208C49.929 18.5701 49.8202 17.9379 49.6365 17.3243C49.3779 16.4794 48.9717 15.6833 48.4357 14.9701C47.8901 14.2267 47.2098 13.5846 46.4275 13.0745C45.2086 12.2825 43.8583 11.8361 42.4037 11.6703C41.2571 11.5365 40.095 11.5983 38.9705 11.8527C37.5261 12.1795 36.2323 12.7895 35.1399 13.7602C33.8148 14.9115 32.9298 16.4593 32.6273 18.1546C32.4165 19.301 32.4269 20.475 32.658 21.6177C32.8019 22.3267 33.0525 23.0116 33.4018 23.6506C34.011 24.8014 34.9105 25.7859 36.0175 26.5135C37.3764 27.4085 38.896 27.8596 40.5249 27.9721C41.794 28.0649 43.0696 27.9151 44.2786 27.5313C45.6717 27.0874 46.878 26.3711 47.8628 25.3161ZM44.5965 17.7717C44.9131 18.4136 45.0224 19.0967 45.0248 19.8083C45.0211 20.4606 44.9254 21.1035 44.648 21.7145C44.1889 22.7161 43.4082 23.3625 42.3194 23.6479C41.3662 23.9137 40.3444 23.825 39.4557 23.3992C38.752 23.0701 38.1903 22.5133 37.8685 21.8257C37.4451 20.9532 37.3726 20.0332 37.4819 19.0919C37.551 18.4202 37.7988 17.777 38.2012 17.2247C38.5925 16.6876 39.1471 16.2809 39.7884 16.0608C40.9938 15.6441 42.1636 15.7198 43.2769 16.3449C43.8575 16.6794 44.318 17.1773 44.5965 17.7717ZM57.5924 0H65.5564C67.8743 9.32984 70.1939 18.662 72.5151 27.9966H65.0163C64.6903 26.3693 64.3634 24.7405 64.0356 23.1102H57.4575C57.2872 23.886 57.117 24.6607 56.9467 25.436C56.7595 26.2876 56.5722 27.14 56.3846 27.9953C56.3921 28.003 54.8949 27.9992 53.4202 27.9955C51.9925 27.9919 50.5859 27.9883 50.5859 27.9953C50.6608 27.6874 57.5924 0 57.5924 0ZM59.1387 15.5446C58.9206 16.5213 58.7025 17.4985 58.4947 18.4785L63.0486 18.4786C62.8624 17.5334 62.6682 16.5905 62.4741 15.6484C61.8724 12.7277 61.272 9.81345 60.9165 6.85656C60.8963 6.85656 60.8763 6.85626 60.8564 6.85595C60.8364 6.85565 60.8165 6.85534 60.7962 6.85534C60.4248 9.78356 59.7823 12.6616 59.1387 15.5446Z" fill="#E42646"/>
</svg>
