<svg width="40" height="40" viewBox="0 0 40 40" fill="none" xmlns="http://www.w3.org/2000/svg">
<g id="Frame 1410111438">
<path d="M0.526316 16.8421C0.526316 12.8575 0.527434 9.922 0.829931 7.67205C1.13039 5.43724 1.71949 3.95778 2.83863 2.83863C3.95778 1.71949 5.43724 1.13039 7.67205 0.829931C9.922 0.527434 12.8575 0.526316 16.8421 0.526316H23.1579C27.1425 0.526316 30.078 0.527434 32.3279 0.829931C34.5628 1.13039 36.0422 1.71949 37.1614 2.83863C38.2805 3.95778 38.8696 5.43724 39.1701 7.67205C39.4726 9.922 39.4737 12.8575 39.4737 16.8421V23.1579C39.4737 27.1425 39.4726 30.078 39.1701 32.3279C38.8696 34.5628 38.2805 36.0422 37.1614 37.1614C36.0422 38.2805 34.5628 38.8696 32.3279 39.1701C30.078 39.4726 27.1425 39.4737 23.1579 39.4737H16.8421C12.8575 39.4737 9.922 39.4726 7.67205 39.1701C5.43724 38.8696 3.95778 38.2805 2.83863 37.1614C1.71949 36.0422 1.13039 34.5628 0.829931 32.3279C0.527434 30.078 0.526316 27.1425 0.526316 23.1579V16.8421Z" fill="white"/>
<path d="M0.526316 16.8421C0.526316 12.8575 0.527434 9.922 0.829931 7.67205C1.13039 5.43724 1.71949 3.95778 2.83863 2.83863C3.95778 1.71949 5.43724 1.13039 7.67205 0.829931C9.922 0.527434 12.8575 0.526316 16.8421 0.526316H23.1579C27.1425 0.526316 30.078 0.527434 32.3279 0.829931C34.5628 1.13039 36.0422 1.71949 37.1614 2.83863C38.2805 3.95778 38.8696 5.43724 39.1701 7.67205C39.4726 9.922 39.4737 12.8575 39.4737 16.8421V23.1579C39.4737 27.1425 39.4726 30.078 39.1701 32.3279C38.8696 34.5628 38.2805 36.0422 37.1614 37.1614C36.0422 38.2805 34.5628 38.8696 32.3279 39.1701C30.078 39.4726 27.1425 39.4737 23.1579 39.4737H16.8421C12.8575 39.4737 9.922 39.4726 7.67205 39.1701C5.43724 38.8696 3.95778 38.2805 2.83863 37.1614C1.71949 36.0422 1.13039 34.5628 0.829931 32.3279C0.527434 30.078 0.526316 27.1425 0.526316 23.1579V16.8421Z" stroke="#F2F5F6" stroke-width="1.05263"/>
<g id="Group 1410110440">
<path id="Rectangle 3464137" d="M8.42188 23.0756C8.42188 22.6176 8.71806 22.2121 9.15439 22.0728L19.1694 18.8757C19.8485 18.6589 20.5422 19.1657 20.5422 19.8785V37.8961C20.5422 38.4775 20.0709 38.9488 19.4895 38.9488H9.47451C8.89315 38.9488 8.42188 38.4775 8.42188 37.8961V23.0756Z" fill="url(#paint0_linear_3674_34413)"/>
<path id="Rectangle 3464138" d="M17.75 7.89535C17.75 7.14422 18.5141 6.6348 19.2075 6.92369L30.1549 11.4851C30.5471 11.6485 30.8026 12.0318 30.8026 12.4568V37.8954C30.8026 38.4767 30.3314 38.948 29.75 38.948H18.8026C18.2213 38.948 17.75 38.4767 17.75 37.8954V7.89535Z" fill="url(#paint1_linear_3674_34413)"/>
<path id="Rectangle 3464139" d="M9.35938 24.564L11.224 24.0312V27.2278L9.35938 27.7606V24.564Z" fill="#F6F8F9"/>
<path id="Rectangle 3464142" d="M9.35938 30.1539L11.224 29.6211V32.8177L9.35938 33.3504V30.1539Z" fill="#F6F8F9"/>
<path id="Rectangle 3464140" d="M12.1562 23.6343L14.0209 23.1016V26.2981L12.1562 26.8309V23.6343Z" fill="#F6F8F9"/>
<path id="Rectangle 3464143" d="M12.1562 29.2242L14.0209 28.6914V31.888L12.1562 32.4207V29.2242Z" fill="#F6F8F9"/>
<path id="Rectangle 3464141" d="M14.9531 22.6968L16.8178 22.1641V25.3606L14.9531 25.8934V22.6968Z" fill="#F6F8F9"/>
<path id="Rectangle 3464144" d="M14.9531 28.2984L16.8178 27.7656V30.9622L14.9531 31.4949V28.2984Z" fill="#F6F8F9"/>
</g>
</g>
<defs>
<linearGradient id="paint0_linear_3674_34413" x1="14.482" y1="18.4375" x2="14.482" y2="38.9488" gradientUnits="userSpaceOnUse">
<stop stop-color="#97A6B2"/>
<stop offset="1" stop-color="#F2F5F6"/>
</linearGradient>
<linearGradient id="paint1_linear_3674_34413" x1="24.2763" y1="6.31641" x2="24.2763" y2="38.948" gradientUnits="userSpaceOnUse">
<stop stop-color="#97A6B2"/>
<stop offset="1" stop-color="#F2F5F6"/>
</linearGradient>
</defs>
</svg>
