<svg width="21" height="20" viewBox="0 0 21 20" fill="none" xmlns="http://www.w3.org/2000/svg">
<g id="icon/cross_close">
<mask id="mask0_16531_35239" style="mask-type:alpha" maskUnits="userSpaceOnUse" x="0" y="0" width="21" height="20">
<rect id="Bounding box" x="0.75" width="20" height="20" fill="#D9D9D9"/>
</mask>
<g mask="url(#mask0_16531_35239)">
<path id="close" d="M10.7507 11.1673L6.66732 15.2507C6.51454 15.4034 6.3201 15.4798 6.08398 15.4798C5.84787 15.4798 5.65343 15.4034 5.50065 15.2507C5.34787 15.0979 5.27148 14.9034 5.27148 14.6673C5.27148 14.4312 5.34787 14.2368 5.50065 14.084L9.58398 10.0007L5.50065 5.91732C5.34787 5.76454 5.27148 5.5701 5.27148 5.33398C5.27148 5.09787 5.34787 4.90343 5.50065 4.75065C5.65343 4.59787 5.84787 4.52148 6.08398 4.52148C6.3201 4.52148 6.51454 4.59787 6.66732 4.75065L10.7507 8.83398L14.834 4.75065C14.9868 4.59787 15.1812 4.52148 15.4173 4.52148C15.6534 4.52148 15.8479 4.59787 16.0007 4.75065C16.1534 4.90343 16.2298 5.09787 16.2298 5.33398C16.2298 5.5701 16.1534 5.76454 16.0007 5.91732L11.9173 10.0007L16.0007 14.084C16.1534 14.2368 16.2298 14.4312 16.2298 14.6673C16.2298 14.9034 16.1534 15.0979 16.0007 15.2507C15.8479 15.4034 15.6534 15.4798 15.4173 15.4798C15.1812 15.4798 14.9868 15.4034 14.834 15.2507L10.7507 11.1673Z" fill="#F0963B"/>
</g>
</g>
</svg>
