<svg width="24" height="24" viewBox="0 0 24 24" fill="none" xmlns="http://www.w3.org/2000/svg">
<g id="icons8-copy 1">
<path id="Vector" d="M17.5 20L17.0935 20.6095C16.723 21.166 16.0985 21.5 15.4295 21.5H8.75C6.1265 21.5 4 19.3735 4 16.75V7.0705C4 6.402 4.334 5.7775 4.8905 5.4065L5.5 5V16.75C5.5 18.545 6.955 20 8.75 20H17.5Z" fill="#999999"/>
<path id="Vector_2" d="M17.25 18.25H9.25C8.1455 18.25 7.25 17.3545 7.25 16.25V5.25C7.25 4.1455 8.1455 3.25 9.25 3.25H17.25C18.3545 3.25 19.25 4.1455 19.25 5.25V16.25C19.25 17.3545 18.3545 18.25 17.25 18.25Z" stroke="#999999" stroke-width="1.5" stroke-miterlimit="10" stroke-linecap="round" stroke-linejoin="round"/>
</g>
</svg>
