<svg width="16" height="17" viewBox="0 0 16 17" fill="none" xmlns="http://www.w3.org/2000/svg">
<g id="External Link 1">
<g id="surface1029">
<path id="Vector" d="M13.8203 2.1603C13.803 2.16203 13.7856 2.16377 13.7665 2.16551H9.16406C8.98351 2.16377 8.81684 2.25752 8.72483 2.41377C8.63455 2.57002 8.63455 2.76099 8.72483 2.91724C8.81684 3.07349 8.98351 3.16724 9.16406 3.16551H12.6241L7.47656 8.31134C7.34635 8.43808 7.29427 8.62384 7.33941 8.79919C7.38455 8.97453 7.5217 9.11169 7.69705 9.15683C7.8724 9.20196 8.05816 9.14988 8.1849 9.01967L13.3307 3.8721V7.33217C13.329 7.51273 13.4227 7.6794 13.579 7.77141C13.7352 7.86169 13.9262 7.86169 14.0825 7.77141C14.2387 7.6794 14.3325 7.51273 14.3307 7.33217V2.72801C14.3498 2.58391 14.3064 2.43634 14.2075 2.32696C14.1085 2.21759 13.9679 2.15683 13.8203 2.1603ZM4.16406 3.16551C2.78906 3.16551 1.66406 4.29051 1.66406 5.66551V12.3322C1.66406 13.7072 2.78906 14.8322 4.16406 14.8322H10.8307C12.2057 14.8322 13.3307 13.7072 13.3307 12.3322V8.99884C13.3325 8.81828 13.2387 8.65162 13.0825 8.5596C12.9262 8.46933 12.7352 8.46933 12.579 8.5596C12.4227 8.65162 12.329 8.81828 12.3307 8.99884V12.3322C12.3307 13.1672 11.6658 13.8322 10.8307 13.8322H4.16406C3.32899 13.8322 2.66406 13.1672 2.66406 12.3322V5.66551C2.66406 4.83044 3.32899 4.16551 4.16406 4.16551H7.4974C7.67795 4.16724 7.84462 4.07349 7.93663 3.91724C8.02691 3.76099 8.02691 3.57002 7.93663 3.41377C7.84462 3.25752 7.67795 3.16377 7.4974 3.16551H4.16406Z" fill="#97A6B2"/>
</g>
</g>
</svg>
