<svg width="16" height="16" viewBox="0 0 16 16" fill="none" xmlns="http://www.w3.org/2000/svg">
<g id="Help 1">
<g id="surface1276">
<path id="Vector" d="M8.0026 1.33301C4.32726 1.33301 1.33594 4.32433 1.33594 7.99967C1.33594 11.675 4.32726 14.6663 8.0026 14.6663C11.678 14.6663 14.6693 11.675 14.6693 7.99967C14.6693 4.32433 11.678 1.33301 8.0026 1.33301ZM8.0026 2.33301C11.138 2.33301 13.6693 4.86426 13.6693 7.99967C13.6693 11.1351 11.138 13.6663 8.0026 13.6663C4.86719 13.6663 2.33594 11.1351 2.33594 7.99967C2.33594 4.86426 4.86719 2.33301 8.0026 2.33301ZM8.0026 4.33301C6.90365 4.33301 6.0026 5.23405 6.0026 6.33301V6.49967C6.00087 6.68023 6.09462 6.8469 6.25087 6.93891C6.40712 7.02919 6.59809 7.02919 6.75434 6.93891C6.91059 6.8469 7.00434 6.68023 7.0026 6.49967V6.33301C7.0026 5.77572 7.44531 5.33301 8.0026 5.33301C8.5599 5.33301 9.0026 5.77572 9.0026 6.33301C9.0026 7.11252 8.79948 7.21148 8.44358 7.49099C8.26649 7.62988 8.03385 7.79134 7.8342 8.06217C7.63455 8.33474 7.5026 8.71322 7.5026 9.16634C7.50087 9.3469 7.59462 9.51356 7.75087 9.60558C7.90712 9.69586 8.09809 9.69586 8.25434 9.60558C8.41059 9.51356 8.50434 9.3469 8.5026 9.16634C8.5026 8.88162 8.55816 8.76704 8.63976 8.65419C8.72135 8.54308 8.86372 8.43197 9.06163 8.27745C9.45573 7.96669 10.0026 7.38683 10.0026 6.33301C10.0026 5.23405 9.10156 4.33301 8.0026 4.33301ZM8.0026 10.6663C7.63455 10.6663 7.33594 10.965 7.33594 11.333C7.33594 11.7011 7.63455 11.9997 8.0026 11.9997C8.37066 11.9997 8.66927 11.7011 8.66927 11.333C8.66927 10.965 8.37066 10.6663 8.0026 10.6663Z" fill="#6A8090"/>
</g>
</g>
</svg>
