<svg width="20" height="21" fill="none" xmlns="http://www.w3.org/2000/svg"><path d="M10 11.5a.968.968 0 0 0 .713-.288A.967.967 0 0 0 11 10.5V6.475a.928.928 0 0 0-.287-.7A.993.993 0 0 0 10 5.5a.967.967 0 0 0-.712.287A.968.968 0 0 0 9 6.5v4.025c0 .283.096.517.288.7A.99.99 0 0 0 10 11.5Zm0 4a.968.968 0 0 0 .713-.288A.967.967 0 0 0 11 14.5a.97.97 0 0 0-.287-.713A.97.97 0 0 0 10 13.5a.967.967 0 0 0-.712.287A.968.968 0 0 0 9 14.5c0 .283.096.52.288.712A.965.965 0 0 0 10 15.5Zm0 5a9.733 9.733 0 0 1-3.9-.788 10.092 10.092 0 0 1-3.175-2.137c-.9-.9-1.612-1.958-2.137-3.175A9.732 9.732 0 0 1 0 10.5a9.74 9.74 0 0 1 .788-3.9 10.092 10.092 0 0 1 2.137-3.175c.9-.9 1.958-1.613 3.175-2.138A9.743 9.743 0 0 1 10 .5a9.74 9.74 0 0 1 3.9.787 10.105 10.105 0 0 1 3.175 2.138c.9.9 1.612 1.958 2.137 3.175A9.733 9.733 0 0 1 20 10.5a9.733 9.733 0 0 1-.788 3.9 10.092 10.092 0 0 1-2.137 3.175c-.9.9-1.958 1.612-3.175 2.137a9.733 9.733 0 0 1-3.9.788Zm0-2c2.217 0 4.104-.779 5.663-2.337C17.221 14.604 18 12.717 18 10.5s-.779-4.104-2.337-5.663C14.104 3.279 12.217 2.5 10 2.5s-4.104.779-5.662 2.337C2.779 6.396 2 8.283 2 10.5s.78 4.104 2.338 5.663C5.896 17.721 7.783 18.5 10 18.5Z" fill="#F0873A"/></svg>