<svg width="20" height="20" fill="none" xmlns="http://www.w3.org/2000/svg"><mask id="icon/block__a" style="mask-type:alpha" maskUnits="userSpaceOnUse" x="0" y="0" width="20" height="20"><path fill="#D9D9D9" d="M0 0h20v20H0z"/></mask><g mask="url(#icon/block__a)"><path d="M10 18.333a8.11 8.11 0 0 1-3.25-.656 8.41 8.41 0 0 1-2.646-1.781 8.41 8.41 0 0 1-1.78-2.646A8.11 8.11 0 0 1 1.667 10a8.11 8.11 0 0 1 .657-3.25 8.41 8.41 0 0 1 1.78-2.646A8.421 8.421 0 0 1 6.75 2.322 8.12 8.12 0 0 1 10 1.667a8.12 8.12 0 0 1 3.25.655 8.421 8.421 0 0 1 2.646 1.782 8.41 8.41 0 0 1 1.781 2.646 8.11 8.11 0 0 1 .657 3.25 8.11 8.11 0 0 1-.657 3.25 8.41 8.41 0 0 1-1.78 2.646 8.41 8.41 0 0 1-2.647 1.78 8.11 8.11 0 0 1-3.25.657Zm0-1.666c1.861 0 3.438-.646 4.73-1.938 1.291-1.291 1.937-2.868 1.937-4.729 0-.75-.122-1.472-.365-2.167a6.616 6.616 0 0 0-1.052-1.916L5.917 15.25a6.618 6.618 0 0 0 1.917 1.052 6.503 6.503 0 0 0 2.166.365Zm-5.25-2.584 9.334-9.333a6.62 6.62 0 0 0-1.917-1.052A6.505 6.505 0 0 0 10 3.333c-1.86 0-3.437.646-4.729 1.938C3.98 6.562 3.334 8.139 3.334 10c0 .75.121 1.472.365 2.167a6.616 6.616 0 0 0 1.051 1.916Z" fill="#F0873A"/></g></svg>