<svg width="25" height="24" fill="none" xmlns="http://www.w3.org/2000/svg"><path d="M7.021 14.875a6.32 6.32 0 0 0 2.774 2.818 6.167 6.167 0 0 0 3.875.59 6.23 6.23 0 0 0 3.461-1.87 6.423 6.423 0 0 0 1.692-3.598 6.472 6.472 0 0 0-.74-3.917 6.307 6.307 0 0 0-2.881-2.702 6.163 6.163 0 0 0-3.896-.431c-1.31.284-2.385.93-3.272 1.951a5.398 5.398 0 0 0-.864 1.262" stroke="#15376A" stroke-width="1.417" stroke-linecap="round" stroke-linejoin="round"/><path d="m10.326 9.034-3.57.643-.631-3.634" stroke="#15376A" stroke-width="1.417" stroke-linecap="round" stroke-linejoin="round"/></svg>