<svg width="20" height="21" fill="none" xmlns="http://www.w3.org/2000/svg"><mask id="icon/hourglass_empty__a" style="mask-type:alpha" maskUnits="userSpaceOnUse" x="0" y="0" width="20" height="21"><path fill="#D9D9D9" d="M0 .5h20v20H0z"/></mask><g mask="url(#icon/hourglass_empty__a)"><path d="M6.666 17.167h6.667v-2.5a3.21 3.21 0 0 0-.98-2.354 3.21 3.21 0 0 0-2.353-.98 3.21 3.21 0 0 0-2.354.98 3.21 3.21 0 0 0-.98 2.354v2.5ZM10 9.667a3.21 3.21 0 0 0 2.354-.98 3.21 3.21 0 0 0 .979-2.354v-2.5H6.666v2.5c0 .917.327 1.702.98 2.355A3.21 3.21 0 0 0 10 9.667Zm5.833 9.166H4.166a.807.807 0 0 1-.594-.24.806.806 0 0 1-.239-.593c0-.236.08-.434.24-.593.16-.16.357-.24.593-.24H5v-2.5c0-.848.198-1.643.594-2.386A4.642 4.642 0 0 1 7.25 10.5a4.64 4.64 0 0 1-1.656-1.782A4.993 4.993 0 0 1 5 6.333v-2.5h-.834a.807.807 0 0 1-.594-.24A.806.806 0 0 1 3.333 3c0-.236.08-.434.24-.594.16-.16.357-.24.593-.24h11.667c.236 0 .434.08.593.24.16.16.24.358.24.594s-.08.434-.24.593a.804.804 0 0 1-.593.24H15v2.5a4.99 4.99 0 0 1-.594 2.385A4.646 4.646 0 0 1 12.75 10.5a4.648 4.648 0 0 1 1.656 1.78c.396.744.594 1.54.594 2.387v2.5h.833c.236 0 .434.08.593.24.16.16.24.357.24.593s-.08.434-.24.593a.804.804 0 0 1-.593.24Z" fill="#999"/></g></svg>