<svg width="16" height="16" viewBox="0 0 16 16" fill="none" xmlns="http://www.w3.org/2000/svg">
<g id="Info 2">
<g id="surface1175">
<path id="Vector" d="M8.0026 1.32812C4.32726 1.32812 1.33594 4.31944 1.33594 7.99479C1.33594 11.6701 4.32726 14.6615 8.0026 14.6615C11.678 14.6615 14.6693 11.6701 14.6693 7.99479C14.6693 4.31944 11.678 1.32812 8.0026 1.32812ZM8.5026 11.1615C8.5026 11.4375 8.27865 11.6615 8.0026 11.6615C7.72656 11.6615 7.5026 11.4375 7.5026 11.1615V7.49479C7.5026 7.21875 7.72656 6.99479 8.0026 6.99479C8.27865 6.99479 8.5026 7.21875 8.5026 7.49479V11.1615ZM8.0026 5.99479C7.63455 5.99479 7.33594 5.69618 7.33594 5.32812C7.33594 4.96007 7.63455 4.66146 8.0026 4.66146C8.37066 4.66146 8.66927 4.96007 8.66927 5.32812C8.66927 5.69618 8.37066 5.99479 8.0026 5.99479Z" fill="#2B53B6"/>
</g>
</g>
</svg>
