<svg width="22" height="28" viewBox="0 0 22 28" fill="none" xmlns="http://www.w3.org/2000/svg">
    <path
        d="M11.0002 14.0013C11.7335 14.0013 12.3615 13.74 12.8842 13.2173C13.4059 12.6955 13.6668 12.068 13.6668 11.3346C13.6668 10.6013 13.4059 9.9733 12.8842 9.45064C12.3615 8.92886 11.7335 8.66797 11.0002 8.66797C10.2668 8.66797 9.63927 8.92886 9.1175 9.45064C8.59483 9.9733 8.3335 10.6013 8.3335 11.3346C8.3335 12.068 8.59483 12.6955 9.1175 13.2173C9.63927 13.74 10.2668 14.0013 11.0002 14.0013ZM11.0002 23.8013C13.7113 21.3124 15.7224 19.0511 17.0335 17.0173C18.3446 14.9844 19.0002 13.1791 19.0002 11.6013C19.0002 9.17908 18.2277 7.19552 16.6828 5.65064C15.1388 4.10664 13.2446 3.33464 11.0002 3.33464C8.75572 3.33464 6.86105 4.10664 5.31616 5.65064C3.77216 7.19552 3.00016 9.17908 3.00016 11.6013C3.00016 13.1791 3.65572 14.9844 4.96683 17.0173C6.27794 19.0511 8.28905 21.3124 11.0002 23.8013ZM11.0002 27.3346C7.42238 24.2902 4.75038 21.4622 2.98416 18.8506C1.21705 16.24 0.333496 13.8235 0.333496 11.6013C0.333496 8.26797 1.40594 5.61241 3.55083 3.63464C5.69483 1.65686 8.17794 0.667969 11.0002 0.667969C13.8224 0.667969 16.3055 1.65686 18.4495 3.63464C20.5944 5.61241 21.6668 8.26797 21.6668 11.6013C21.6668 13.8235 20.7837 16.24 19.0175 18.8506C17.2504 21.4622 14.5779 24.2902 11.0002 27.3346Z"
        fill="#15376A" />
</svg>