<svg width="20" height="20" viewBox="0 0 20 20" fill="none" xmlns="http://www.w3.org/2000/svg">
<g id="Protect 1">
<g id="surface1664">
<path id="Vector" d="M10.0221 0.83617C9.86155 0.83183 9.70529 0.888254 9.58594 0.99676C9.58594 0.99676 6.4566 3.75284 2.71094 3.75284C2.36589 3.75284 2.08594 4.03278 2.08594 4.37784V9.48634C2.08594 12.2685 3.37283 16.8475 9.75955 19.5363C9.9158 19.6035 10.0894 19.6035 10.2457 19.5363C16.6324 16.8475 17.9193 12.2685 17.9193 9.48634V4.37784C17.9193 4.03278 17.6393 3.75284 17.2943 3.75284C13.5486 3.75284 10.4193 0.99676 10.4193 0.99676C10.3108 0.896934 10.1697 0.84051 10.0221 0.83617ZM13.1276 7.50284C13.286 7.50284 13.4466 7.5636 13.5681 7.68513C13.8134 7.93036 13.8134 8.32532 13.5681 8.57055L9.40148 12.7372C9.27995 12.8587 9.12153 12.9195 8.96094 12.9195C8.80035 12.9195 8.64193 12.8587 8.51823 12.7372L6.4349 10.6539C6.19184 10.4087 6.19184 10.0137 6.4349 9.76846C6.68012 9.52541 7.07509 9.52541 7.32031 9.76846L8.96094 11.4113L12.6849 7.68513C12.8064 7.5636 12.967 7.50284 13.1276 7.50284Z" fill="#2A7E62"/>
</g>
</g>
</svg>
