<svg width="16" height="16" viewBox="0 0 16 16" fill="none" xmlns="http://www.w3.org/2000/svg">
<g id="Box Important 4">
<g id="surface1050">
<path id="Vector" d="M8.0026 1.3335C4.32726 1.3335 1.33594 4.32482 1.33594 8.00016C1.33594 11.6755 4.32726 14.6668 8.0026 14.6668C11.678 14.6668 14.6693 11.6755 14.6693 8.00016C14.6693 4.32482 11.678 1.3335 8.0026 1.3335ZM7.5026 4.8335C7.5026 4.55745 7.72656 4.3335 8.0026 4.3335C8.27865 4.3335 8.5026 4.55745 8.5026 4.8335V8.8335C8.5026 9.10954 8.27865 9.3335 8.0026 9.3335C7.72656 9.3335 7.5026 9.10954 7.5026 8.8335V4.8335ZM8.0026 11.6668C7.63455 11.6668 7.33594 11.3682 7.33594 11.0002C7.33594 10.6321 7.63455 10.3335 8.0026 10.3335C8.37066 10.3335 8.66927 10.6321 8.66927 11.0002C8.66927 11.3682 8.37066 11.6668 8.0026 11.6668Z" fill="#BC5A34"/>
</g>
</g>
</svg>
