<svg width="16" height="17" viewBox="0 0 16 17" fill="none" xmlns="http://www.w3.org/2000/svg">
<g id="high_importance ">
<path id="Vector" d="M8.0026 1.8335C4.32663 1.8335 1.33594 4.82419 1.33594 8.50016C1.33594 12.1761 4.32663 15.1668 8.0026 15.1668C11.6786 15.1668 14.6693 12.1761 14.6693 8.50016C14.6693 4.82419 11.6786 1.8335 8.0026 1.8335ZM8.0026 2.8335C11.1381 2.8335 13.6693 5.36463 13.6693 8.50016C13.6693 11.6357 11.1381 14.1668 8.0026 14.1668C4.86707 14.1668 2.33594 11.6357 2.33594 8.50016C2.33594 5.36463 4.86707 2.8335 8.0026 2.8335ZM7.99479 5.15967C7.8623 5.16174 7.73604 5.21631 7.64376 5.31141C7.55147 5.4065 7.5007 5.53433 7.5026 5.66683V9.00016C7.50167 9.06642 7.51391 9.1322 7.53862 9.19368C7.56332 9.25517 7.6 9.31113 7.64652 9.35831C7.69305 9.4055 7.74848 9.44297 7.80961 9.46854C7.87074 9.49411 7.93634 9.50728 8.0026 9.50728C8.06887 9.50728 8.13447 9.49411 8.1956 9.46854C8.25673 9.44297 8.31216 9.4055 8.35868 9.35831C8.40521 9.31113 8.44189 9.25517 8.46659 9.19368C8.4913 9.1322 8.50354 9.06642 8.5026 9.00016V5.66683C8.50356 5.59991 8.49108 5.53347 8.46589 5.47147C8.4407 5.40946 8.40332 5.35314 8.35597 5.30584C8.30861 5.25855 8.25224 5.22124 8.1902 5.19613C8.12816 5.17102 8.06171 5.15862 7.99479 5.15967ZM8.0026 10.5002C7.82579 10.5002 7.65622 10.5704 7.5312 10.6954C7.40618 10.8204 7.33594 10.99 7.33594 11.1668C7.33594 11.3436 7.40618 11.5132 7.5312 11.6382C7.65622 11.7633 7.82579 11.8335 8.0026 11.8335C8.17942 11.8335 8.34898 11.7633 8.47401 11.6382C8.59903 11.5132 8.66927 11.3436 8.66927 11.1668C8.66927 10.99 8.59903 10.8204 8.47401 10.6954C8.34898 10.5704 8.17942 10.5002 8.0026 10.5002Z" fill="#E97244"/>
</g>
</svg>
