<svg width="47" height="38" viewBox="0 0 47 38" fill="none" xmlns="http://www.w3.org/2000/svg">
<path d="M42.7501 16.3178C40.2547 13.898 37.3627 12.0044 34.074 10.6367C30.784 9.27035 27.2593 8.58716 23.5001 8.58716C22.8195 8.58716 22.1636 8.61042 21.5323 8.65693C20.8997 8.70469 20.2593 8.77571 19.6112 8.86999L14.6529 4.06191C16.0788 3.6848 17.5293 3.40198 19.0045 3.21342C20.4784 3.02487 21.9769 2.93059 23.5001 2.93059C28.1019 2.93059 32.3959 3.76337 36.382 5.42891C40.3681 7.09446 43.8519 9.37279 46.8334 12.2639L42.7501 16.3178ZM34.9723 23.7656L25.1529 14.2437C27.7779 14.4951 30.233 15.1393 32.5184 16.1764C34.8025 17.2134 36.8195 18.5804 38.5695 20.2774L34.9723 23.7656ZM38.5695 38.0013L20.2917 20.1831C18.7686 20.5288 17.3511 21.0473 16.0392 21.7387C14.7261 22.43 13.551 23.2942 12.514 24.3313L8.43064 20.2774C9.46767 19.2718 10.5857 18.3919 11.7848 17.6377C12.9839 16.8835 14.264 16.2235 15.6251 15.6579L11.2501 11.4154C9.92138 12.0754 8.68212 12.8057 7.5323 13.6064C6.38119 14.4084 5.28712 15.3122 4.25008 16.3178L0.166748 12.2639C1.20379 11.2583 2.28166 10.3545 3.40036 9.55255C4.51777 8.75183 5.70841 7.99008 6.9723 7.2673L2.88897 3.3077L5.61119 0.667969L41.389 35.3616L38.5695 38.0013ZM23.5001 34.9845L16.6459 28.2909C17.5209 27.4424 18.5417 26.7743 19.7084 26.2866C20.8751 25.8001 22.139 25.5569 23.5001 25.5569C24.8612 25.5569 26.1251 25.8001 27.2917 26.2866C28.4584 26.7743 29.4792 27.4424 30.3542 28.2909L23.5001 34.9845Z" fill="#D2DDF1"/>
</svg>
